HIERARCHY
ROOT Hips
{
 OFFSET 0.000000 0.000000 0.000000
 CHANNELS 6 Xposition Yposition Zposition Yrotation Xrotation Zrotation
 JOINT Chest
 {
  OFFSET 0.000000 10.080317 -0.001081
  CHANNELS 3 Yrotation Xrotation Zrotation
  JOINT Chest2
  {
   OFFSET 0.000000 11.096852 0.001963
   CHANNELS 3 Yrotation Xrotation Zrotation
   JOINT Chest3
   {
    OFFSET 0.000000 10.026525 0.000000
    CHANNELS 3 Yrotation Xrotation Zrotation
    JOINT Chest4
    {
     OFFSET 0.000000 10.026525 0.000000
     CHANNELS 3 Yrotation Xrotation Zrotation
     JOINT Neck
     {
      OFFSET 0.000000 14.108171 0.000000
      CHANNELS 3 Yrotation Xrotation Zrotation
      JOINT Head
      {
       OFFSET 0.000000 9.333493 0.004668
       CHANNELS 3 Yrotation Xrotation Zrotation
       End Site
       {
        OFFSET 0.000000 17.851786 0.002438
       }
      }
     }
     JOINT RightCollar
     {
      OFFSET -3.071622 7.873185 0.000000
      CHANNELS 3 Yrotation Xrotation Zrotation
      JOINT RightShoulder
      {
       OFFSET -14.378659 0.000000 0.000000
       CHANNELS 3 Yrotation Xrotation Zrotation
       JOINT RightElbow
       {
        OFFSET -30.778728 0.000000 0.000000
        CHANNELS 3 Yrotation Xrotation Zrotation
        JOINT RightWrist
        {
         OFFSET -25.164217 0.000000 0.000000
         CHANNELS 3 Yrotation Xrotation Zrotation
         End Site
         {
          OFFSET -18.796788 0.000000 0.000000
         }
        }
       }
      }
     }
     JOINT LeftCollar
     {
      OFFSET 3.071622 7.873185 0.000000
      CHANNELS 3 Yrotation Xrotation Zrotation
      JOINT LeftShoulder
      {
       OFFSET 14.378659 0.000000 0.000000
       CHANNELS 3 Yrotation Xrotation Zrotation
       JOINT LeftElbow
       {
        OFFSET 30.778728 0.000000 0.000000
        CHANNELS 3 Yrotation Xrotation Zrotation
        JOINT LeftWrist
        {
         OFFSET 25.164217 0.000000 0.000000
         CHANNELS 3 Yrotation Xrotation Zrotation
         End Site
         {
          OFFSET 18.796788 0.000000 0.000000
         }
        }
       }
      }
     }
    }
   }
  }
 }
 JOINT RightHip
 {
  OFFSET -8.194923 0.005295 0.000540
  CHANNELS 3 Yrotation Xrotation Zrotation
  JOINT RightKnee
  {
   OFFSET 0.000000 -42.473320 -0.000511
   CHANNELS 3 Yrotation Xrotation Zrotation
   JOINT RightAnkle
   {
    OFFSET 0.000000 -41.474259 -0.000865
    CHANNELS 3 Yrotation Xrotation Zrotation
    JOINT RightToe
    {
     OFFSET 0.000000 -7.354994 16.712725
     CHANNELS 3 Yrotation Xrotation Zrotation
     End Site
     {
      OFFSET 0.000000 -1.553903 6.764158
     }
    }
   }
  }
 }
 JOINT LeftHip
 {
  OFFSET 8.194923 0.005295 0.000540
  CHANNELS 3 Yrotation Xrotation Zrotation
  JOINT LeftKnee
  {
   OFFSET 0.000000 -42.473320 -0.000511
   CHANNELS 3 Yrotation Xrotation Zrotation
   JOINT LeftAnkle
   {
    OFFSET 0.000000 -41.474259 -0.000865
    CHANNELS 3 Yrotation Xrotation Zrotation
    JOINT LeftToe
    {
     OFFSET 0.000000 -7.354994 16.712725
     CHANNELS 3 Yrotation Xrotation Zrotation
     End Site
     {
      OFFSET 0.000000 -1.553903 6.764158
     }
    }
   }
  }
 }
}
MOTION
Frames: 11
Frame Time: 0.016667
0.000000 91.111157 0.000000 0.000000 -5.826342 0.000000 0.000000 11.116423 0.000000 0.000000 -5.290081 0.000000 0.000000 0.000000 0.000000 0.000000 0.000000 0.000000 0.000000 12.665069 0.000000 0.000000 0.575450 0.000000 0.000000 0.000000 0.000000 0.000000 0.000000 0.000000 2.337306 0.000000 0.000000 -2.337306 0.000000 0.000000 0.000000 0.000000 0.000000 0.000000 0.000000 0.000000 -2.337306 0.000000 0.000000 2.337306 0.000000 0.000000 0.000000 8.578828 0.000000 0.000000 1.905768 0.000000 0.000000 -4.658254 0.000000 0.000000 0.000000 0.000000 0.000000 8.578828 0.000000 0.000000 1.905768 0.000000 0.000000 -4.658254 0.000000 0.000000 0.000000 0.000000
51.202731 93.001274 17.907564 -169.121712 -2.078942 1.188828 2.010162 2.293033 1.438291 0.883629 1.028983 0.650985 0.883629 1.028983 0.650985 0.661609 0.772681 0.486739 9.871227 17.343237 -1.919663 18.862896 -3.075225 -6.847392 1.248584 -2.202662 13.714738 3.594503 -1.305703 59.035140 27.226925 43.042604 18.876816 -5.187645 13.327466 -31.426633 -9.313464 -2.884306 -10.532365 -1.819908 -13.158376 -72.880542 -15.546967 37.962268 -13.008911 14.126476 13.559047 25.588302 -4.993171 5.811390 0.572881 -0.390082 2.789696 2.692394 -6.767132 -5.984982 -1.613483 0.030925 -0.111552 0.088037 -0.026618 -3.459269 9.451500 3.307313 19.489472 -2.985647 2.604561 -7.924444 -5.931814 -0.032781 -0.383877 -0.914233
51.013911 93.031333 17.949630 -169.431888 -2.074339 1.157018 2.039403 2.298869 1.421990 0.897465 1.033179 0.645822 0.897465 1.033179 0.645822 0.671990 0.775835 0.482837 9.932793 17.345208 -1.915539 18.974535 -3.063261 -6.859118 1.244711 -2.148240 13.726298 3.494726 -1.329454 59.098732 27.295685 42.935300 18.863290 -5.290324 13.341240 -31.512717 -9.307900 -2.856351 -10.509048 -1.929507 -13.102921 -72.929038 -15.505284 38.034430 -12.963040 13.924418 13.195656 26.605820 -4.976187 5.761294 0.477586 -0.244665 2.813283 2.660866 -6.671262 -5.919550 -1.528376 0.031774 -0.123536 0.110535 0.080559 -3.422482 9.672311 3.241021 19.470334 -2.968976 2.616706 -7.917092 -5.936212 -0.023200 -0.308843 -0.905363
50.809989 93.054270 18.003741 -169.828663 -2.057612 1.118645 2.104253 2.309595 1.400670 0.927526 1.039242 0.643855 0.927526 1.039242 0.643855 0.694531 0.780412 0.481302 9.969302 17.339069 -1.920035 19.043932 -3.068365 -6.879944 1.160481 -2.116431 13.720464 3.447408 -1.336446 59.164814 27.404461 42.868011 18.910298 -5.361481 13.351327 -31.623905 -9.408458 -2.823647 -10.475504 -1.951076 -13.057439 -72.986610 -15.500023 37.926293 -12.907370 13.456748 12.726239 27.552233 -4.879134 5.685529 0.387069 -0.109795 2.836287 2.613818 -6.543153 -5.812688 -1.431932 0.033782 -0.158870 0.132593 0.298634 -3.404697 9.885769 3.175324 19.472954 -2.953511 2.732551 -7.958782 -5.884221 -0.015878 -0.209590 -0.941530
50.716875 92.868157 18.048001 -170.192740 -2.061755 0.763743 2.173412 2.307916 1.704855 0.945783 1.042910 0.639688 0.945783 1.042910 0.639688 0.708227 0.783176 0.478140 10.018683 17.336986 -1.930185 19.138367 -3.063068 -6.914550 1.143322 -2.051698 13.723618 3.422542 -1.320246 59.214820 27.460846 42.726458 18.892092 -5.472877 13.324142 -31.742093 -9.414580 -2.759171 -10.449322 -1.961301 -13.017054 -73.070757 -15.623374 37.834250 -12.936316 13.103389 12.238388 28.478234 -4.782168 5.677718 0.658127 0.010051 2.853757 2.571302 -6.297609 -5.959864 -1.351694 -0.069506 0.036128 0.105990 0.505023 -3.386309 10.296032 3.182186 19.462907 -2.933027 2.672417 -7.624466 -5.678454 0.114817 -0.501527 -0.958360
50.551732 92.878926 18.105700 -170.553472 -2.062096 0.671385 2.206474 2.313936 1.732288 0.970167 1.054218 0.641582 0.970167 1.054218 0.641582 0.726499 0.791686 0.479501 10.073090 17.326349 -1.946407 19.245119 -3.071625 -6.963244 1.108833 -2.005286 13.711248 3.357622 -1.306994 59.256570 27.545767 42.575214 18.890514 -5.601207 13.286346 -31.832169 -9.389767 -2.723423 -10.442985 -1.924512 -12.991636 -73.175244 -15.860869 37.782808 -13.069102 13.025196 11.823463 29.845220 -4.704739 5.634274 0.622269 0.103591 2.851983 2.547199 -6.101673 -5.876225 -1.261670 -0.123240 0.027387 0.096211 0.691093 -3.384491 10.436132 3.083882 19.549007 -2.954704 2.750355 -7.871618 -5.494994 0.314302 -0.316675 -0.935819
50.372442 92.886804 18.168494 -170.901432 -2.071372 0.625689 2.229176 2.328779 1.720413 0.980457 1.061274 0.643023 0.980457 1.061274 0.643023 0.734206 0.796991 0.480552 10.133157 17.314452 -1.958981 19.361246 -3.082236 -7.007269 1.114639 -1.953402 13.698124 3.291650 -1.260816 59.303730 27.561200 42.347989 18.824872 -5.760846 13.224742 -31.930501 -9.363652 -2.674116 -10.435877 -1.915573 -12.959799 -73.306544 -16.197466 37.639335 -13.182314 12.972057 11.277831 31.292004 -4.663045 5.585154 0.539494 0.228373 2.866125 2.499783 -5.937065 -5.823382 -1.143557 -0.176417 0.042408 0.080702 0.898265 -3.411930 10.587750 2.992789 19.661525 -2.986243 2.867450 -8.063509 -5.306076 0.363000 -0.186600 -0.950040
50.118520 92.898292 18.234849 -171.301149 -2.101257 0.621605 2.274387 2.368247 1.650826 0.998400 1.071149 0.645053 0.998400 1.071149 0.645053 0.747649 0.804419 0.482027 10.191510 17.301218 -1.965135 19.472280 -3.096658 -7.039225 1.082753 -1.929158 13.691128 3.219068 -1.231674 59.336332 27.551787 42.143633 18.791939 -5.952008 13.133251 -32.053790 -9.361312 -2.626351 -10.422681 -1.863070 -12.918161 -73.462514 -16.537037 37.286447 -13.190933 12.749889 10.845457 32.415760 -4.569770 5.557483 0.373552 0.326337 2.866963 2.458538 -5.773800 -5.773569 -1.011666 -0.175723 0.071349 0.086410 1.105254 -3.414468 10.751665 2.839601 19.769272 -3.030224 3.272515 -8.212399 -5.162824 0.225929 -0.088507 -1.015505
49.802698 92.914300 18.314752 -171.649733 -2.126497 0.632352 2.313468 2.391529 1.568728 1.013005 1.076114 0.645713 1.013005 1.076114 0.645713 0.758595 0.808160 0.482488 10.232182 17.295939 -1.951639 19.543307 -3.102654 -7.028311 1.035177 -1.890706 13.708971 3.143226 -1.200590 59.365141 27.420767 41.911345 18.647824 -6.140937 13.006858 -32.163600 -9.388731 -2.572154 -10.387605 -1.752303 -12.919868 -73.668166 -16.992117 37.070360 -13.280953 12.597643 10.753008 32.964738 -4.523217 5.518725 0.149470 0.459960 2.864093 2.435734 -5.692227 -5.712090 -0.866468 -0.138377 0.092477 0.107794 1.267370 -3.408048 10.874497 2.686529 19.870897 -3.092369 3.648497 -8.428952 -4.998514 0.077236 0.041249 -1.061397
49.453044 92.929723 18.398919 -172.045257 -2.145712 0.579619 2.350075 2.399464 1.522854 1.029718 1.076483 0.650661 1.029718 1.076483 0.650661 0.771120 0.808463 0.486169 10.270144 17.298217 -1.922797 19.603324 -3.097950 -6.987209 0.971741 -1.839293 13.722332 3.072342 -1.185960 59.408610 27.219068 41.736012 18.453023 -6.239556 12.930479 -32.215191 -9.414691 -2.500780 -10.362135 -1.500194 -13.018783 -73.867692 -17.521208 37.035594 -13.528422 12.522165 10.806920 33.104909 -4.459353 5.469782 -0.030895 0.645842 2.865208 2.409099 -5.629587 -5.636571 -0.689809 -0.111393 0.101518 0.121204 1.476501 -3.392998 10.969979 2.489926 19.975520 -3.142859 3.972843 -8.680165 -4.823798 -0.005617 0.147083 -1.053427
49.084107 92.940337 18.489821 -172.355230 -2.151042 0.504563 2.355108 2.394432 1.503091 1.032286 1.072412 0.653950 1.032286 1.072412 0.653950 0.773045 0.805418 0.488638 10.325270 17.296583 -1.880269 19.690893 -3.100337 -6.927160 0.932302 -1.796436 13.733383 2.986023 -1.161522 59.452028 26.932722 41.557674 18.210859 -6.244961 12.891738 -32.195396 -9.425671 -2.460255 -10.341466 -1.335729 -13.156446 -74.042676 -18.080556 37.088055 -13.861853 12.547013 10.822196 33.124402 -4.428223 5.394044 -0.196613 0.756954 2.894675 2.378658 -5.567281 -5.571457 -0.502577 -0.068571 0.103369 0.141552 1.616802 -3.378471 11.021918 2.281717 20.067839 -3.208401 4.203009 -8.943226 -4.629691 -0.040757 0.231105 -0.994941
